# xmcd
#
# Track frame offsets:
#	150
#	631
#	31063
#	62042
#	85119
#	109083
#	133873
#	157109
#	180749
#	210189
#	239832
#	269234
#	296346
#
# Disc length: 4302 seconds
#
# Revision: 0
# Processed by: cddbd v1.5.1PL2 Copyright (c) Steve Scherf et al.
# Submitted via: dBpowerAMP V4.0
#
DISCID=b810cc0d
DTITLE=Astrid Lindgren - Mästerdetektiven Blomkvist - CD-BOK 01/03
DYEAR=1946
DGENRE=CD-BOK
TTITLE0=01.01
TTITLE1=01.02
TTITLE2=01.03
TTITLE3=01.04
TTITLE4=01.05
TTITLE5=01.06
TTITLE6=01.07
TTITLE7=01.08
TTITLE8=01.09
TTITLE9=01.10
TTITLE10=01.11
TTITLE11=01.12
TTITLE12=01.13
EXTD=
EXTT0=
EXTT1=
EXTT2=
EXTT3=
EXTT4=
EXTT5=
EXTT6=
EXTT7=
EXTT8=
EXTT9=
EXTT10=
EXTT11=
EXTT12=
PLAYORDER=
